# xmcd CD database file
#
# Track frame offsets:
#	150
#	24372
#	41717
#	51435
#	63937
#	73617
#	84747
#	99030
#	113070
#	128805
#	152505
#	165022
#	176472
#	189707
#	206637
#	230687
#	245962
#
# Disc length: 3522 seconds
#
# Revision: 0
# Processed by: cddbd v1.5.1PL0 Copyright (c) Steve Scherf et al.
# Submitted via: CDex 1.50Beta7
#
DISCID=e00dc011
DTITLE=Eddie Condon - The Town Hall Concerts Volume 2 [CD1/2)
DYEAR=1944
DGENRE=Jazz
TTITLE0=The Joint Is Jumpin'
TTITLE1=Squeeze Me
TTITLE2=Willow Tree
TTITLE3=Candied Sweets
TTITLE4=I'm Crazy About My Baby
TTITLE5=Ain't Misbehavin'
TTITLE6=Honeysuckle Rose
TTITLE7=If It Ain't Love
TTITLE8=Buy Bonds Blues - Ensemble Blues - Old Miss Blues
TTITLE9=I Found A New Baby
TTITLE10=What Is There To Say?
TTITLE11=St. Louis Blues
TTITLE12=China Town, My China Town
TTITLE13=Cherry
TTITLE14=Jazz Me Blues
TTITLE15=Keepin' Out Of Mischief
TTITLE16=Ensemble Blues
EXTD=YEAR: 1944
EXTT0=
EXTT1=
EXTT2=
EXTT3=
EXTT4=
EXTT5=
EXTT6=
EXTT7=
EXTT8=
EXTT9=
EXTT10=
EXTT11=
EXTT12=
EXTT13=
EXTT14=
EXTT15=
EXTT16=
PLAYORDER=
